<svg width="117" height="112" viewBox="0 0 117 112" fill="none" xmlns="http://www.w3.org/2000/svg">
<path d="M2.74219 117.484H114.258C114.985 117.484 115.683 117.166 116.197 116.598C116.711 116.031 117 115.261 117 114.459C117 113.656 116.711 112.886 116.197 112.319C115.683 111.751 114.985 111.433 114.258 111.433H100.518V44.6115C100.518 43.809 100.229 43.0394 99.7151 42.4719C99.2009 41.9045 98.5034 41.5857 97.7761 41.5857H81.2087C80.4815 41.5857 79.784 41.9045 79.2697 42.4719C78.7555 43.0394 78.4666 43.809 78.4666 44.6115V111.433H69.5259V59.3626C69.5259 58.5601 69.237 57.7905 68.7227 57.223C68.2085 56.6555 67.511 56.3368 66.7837 56.3368H50.2163C49.489 56.3368 48.7915 56.6555 48.2773 57.223C47.763 57.7905 47.4741 58.5601 47.4741 59.3626V111.433H38.5334V74.1137C38.5334 73.3112 38.2445 72.5415 37.7303 71.9741C37.216 71.4066 36.5185 71.0878 35.7913 71.0878H19.2239C18.4966 71.0878 17.7991 71.4066 17.2849 71.9741C16.7706 72.5415 16.4817 73.3112 16.4817 74.1137V111.433H2.74219C2.01491 111.433 1.31743 111.751 0.803168 112.319C0.288908 112.886 0 113.656 0 114.459C0 115.261 0.288908 116.031 0.803168 116.598C1.31743 117.166 2.01491 117.484 2.74219 117.484ZM83.9509 47.6374H95.0339V111.433H83.9509V47.6374ZM52.9585 62.3885H64.0415V111.433H52.9585V62.3885ZM21.9661 77.1395H33.0491V111.433H21.9661V77.1395ZM16.346 65.4219C16.24 65.0421 16.2029 64.6429 16.2368 64.2472C16.2706 63.8516 16.3748 63.4671 16.5433 63.1159C16.7119 62.7647 16.9415 62.4535 17.219 62.2002C17.4965 61.9469 17.8166 61.7564 18.1608 61.6396C47.2528 51.8258 73.0201 32.6358 92.1507 6.5361H81.0945C80.3672 6.5361 79.6697 6.2173 79.1555 5.64985C78.6412 5.08239 78.3523 4.31275 78.3523 3.51024C78.3523 2.70773 78.6412 1.93809 79.1555 1.37063C79.6697 0.80317 80.3672 0.484375 81.0945 0.484375H97.7761C98.5034 0.484375 99.2009 0.80317 99.7151 1.37063C100.229 1.93809 100.518 2.70773 100.518 3.51024V21.9176C100.518 22.7201 100.229 23.4897 99.7151 24.0572C99.2009 24.6246 98.5034 24.9434 97.7761 24.9434C97.0489 24.9434 96.3514 24.6246 95.8371 24.0572C95.3228 23.4897 95.0339 22.7201 95.0339 21.9176V12.1927C85.9083 24.2642 75.3505 34.9243 63.6455 43.8853C50.2085 54.1803 35.4095 62.1204 19.7732 67.4243C19.429 67.5415 19.0672 67.5827 18.7085 67.5455C18.3499 67.5083 18.0014 67.3934 17.683 67.2074C17.3646 67.0214 17.0826 66.7679 16.8531 66.4615C16.6236 66.1551 16.4511 65.8017 16.3455 65.4216L16.346 65.4219Z" fill="white"/>
</svg>
