<svg width="107" height="105" viewBox="0 0 107 105" fill="none" xmlns="http://www.w3.org/2000/svg">
<path d="M105.448 72.624L93.514 63.732C93.397 63.615 93.163 63.498 92.929 63.498L53.9681 52.383C53.6171 52.266 53.266 52.266 53.032 52.383L14.071 63.498C13.837 63.498 13.72 63.615 13.486 63.732L1.55205 72.624C0.967051 72.975 0.733051 73.677 0.850051 74.379C0.967051 75.081 1.43505 75.549 2.02005 75.783L12.784 79.176V92.046C12.784 92.865 13.252 93.567 14.071 93.684L53.032 104.799C53.149 104.799 53.383 104.916 53.5 104.916C53.734 104.916 53.8511 104.916 53.9681 104.799L92.929 93.684C93.631 93.45 94.216 92.748 94.216 92.046V79.176L104.98 75.783C105.565 75.549 106.033 75.081 106.15 74.379C106.267 73.677 105.916 73.092 105.448 72.624ZM53.5 55.893L86.0261 65.136L53.5 74.496L20.9741 65.253L53.5 55.893ZM14.89 67.125L50.107 77.187L42.2681 84.675L6.46605 73.443L14.89 67.125ZM16.2941 90.642V80.229L42.1511 88.302C42.2681 88.302 42.5021 88.419 42.6191 88.419C43.0871 88.419 43.5551 88.302 43.7891 87.951L51.6281 80.463V100.821L16.2941 90.642ZM90.7061 90.642L55.2551 100.821V80.346L63.0941 87.834C63.4451 88.185 63.913 88.302 64.264 88.302C64.381 88.302 64.615 88.302 64.732 88.185L90.589 80.112V90.642H90.7061ZM64.732 84.675L56.8931 77.187L92.11 67.125L100.651 73.443L64.732 84.675ZM42.0341 28.983L42.3851 29.451C43.7891 31.089 44.8421 32.376 45.3101 33.546C45.5441 34.131 45.6611 34.716 45.7781 35.301H44.1401C43.2041 35.301 42.3851 36.12 42.3851 37.056C42.3851 37.992 43.2041 38.811 44.1401 38.811H46.0121V44.076C46.0121 45.831 47.4161 47.235 49.1711 47.235H57.946C59.701 47.235 61.105 45.831 61.105 44.076V38.811H62.8601C63.7961 38.811 64.6151 37.992 64.6151 37.056C64.6151 36.12 63.7961 35.301 62.8601 35.301H61.105C61.222 34.716 61.3391 34.131 61.5731 33.546C62.0411 32.376 63.0941 31.089 64.4981 29.451L64.8491 28.983C66.2531 27.345 67.891 25.59 68.827 23.484C70.933 18.57 70.348 12.72 67.189 7.92299C64.147 3.00899 58.999 0.200989 53.5 0.200989C48.001 0.200989 42.8531 3.00899 39.6941 7.80599C36.5351 12.603 35.95 18.453 38.056 23.367C38.992 25.473 40.6301 27.345 42.0341 28.983ZM57.4781 43.608H49.522V38.694H57.4781V43.608ZM42.736 9.79499C45.31 5.93399 49.171 3.71099 53.5 3.71099C57.829 3.71099 61.8071 5.93399 64.3811 9.79499C66.955 13.656 67.423 18.219 65.785 22.08C65.083 23.601 63.679 25.239 62.392 26.643L62.041 27.111C60.4031 28.983 59.233 30.504 58.531 32.025C58.063 33.078 57.829 34.131 57.712 35.184H49.522C49.405 34.131 49.1711 33.078 48.7031 32.025C48.0011 30.387 46.8311 28.866 45.1931 27.111L44.842 26.643C43.555 25.239 42.1511 23.601 41.4491 22.08C39.6941 18.219 40.162 13.539 42.736 9.79499ZM76.1981 19.389C76.1981 20.325 77.017 21.144 77.953 21.144H85.792C86.728 21.144 87.5471 20.325 87.5471 19.389C87.5471 18.453 86.728 17.634 85.792 17.634H77.953C77.017 17.634 76.1981 18.453 76.1981 19.389ZM75.964 10.965C76.315 10.965 76.6661 10.848 77.0171 10.614L83.218 5.81699C83.92 5.23199 84.037 4.17899 83.452 3.35999C82.867 2.54099 81.814 2.42399 80.995 3.00899L74.794 7.80599C73.975 8.39099 73.8581 9.44399 74.4431 10.263C74.9111 10.731 75.379 10.965 75.964 10.965ZM74.794 31.089L80.995 35.886C81.346 36.12 81.697 36.237 82.048 36.237C82.516 36.237 83.101 36.003 83.452 35.535C84.037 34.716 83.9201 33.663 83.1011 33.078L76.9 28.281C76.081 27.696 75.0281 27.813 74.4431 28.632C73.9751 29.451 74.092 30.504 74.794 31.089ZM21.208 21.144H29.0471C29.9831 21.144 30.802 20.325 30.802 19.389C30.802 18.453 29.9831 17.634 29.0471 17.634H21.208C20.272 17.634 19.453 18.453 19.453 19.389C19.453 20.325 20.272 21.144 21.208 21.144ZM23.899 5.81699L30.1 10.614C30.451 10.848 30.802 10.965 31.153 10.965C31.621 10.965 32.206 10.731 32.557 10.263C33.142 9.44399 33.025 8.39099 32.206 7.80599L26.005 3.00899C25.186 2.42399 24.133 2.54099 23.548 3.35999C22.963 4.17899 23.08 5.23199 23.899 5.81699ZM29.983 28.281L23.782 33.078C22.963 33.663 22.846 34.716 23.431 35.535C23.782 36.003 24.25 36.237 24.835 36.237C25.186 36.237 25.537 36.12 25.888 35.886L32.0891 31.089C32.9081 30.504 33.0251 29.451 32.4401 28.632C31.8551 27.813 30.802 27.696 29.983 28.281Z" fill="white"/>
</svg>
