<svg id="Layer_1" height="512" viewBox="0 0 64 64" width="512" xmlns="http://www.w3.org/2000/svg"><path fill="#ffffff" d="m31.67 16.99c8.3.39 14.95 7.04 15.34 15.34.06 1.29-1.94 1.38-2 .09-.34-7.27-6.16-13.09-13.43-13.43-1.29-.06-1.2-2.06.09-2z"/><path fill="#ffffff" d="m32.05 9c12.42.59 22.36 10.53 22.95 22.95.06 1.29-1.94 1.38-2 .1-.54-11.39-9.63-20.49-21.01-21.05-.01 0-.03 0-.04 0-1.25-.04-1.21-2.06.1-2z"/><path fill="#ffffff" d="m50.83 43.07c1.72.84 2.45 2.9 1.66 4.64-.84 1.84-2.1 3.46-3.68 4.73-1.84 1.48-4.31 1.94-6.56 1.23-15.68-4.95-27.75-17.56-32.01-33.44-.61-2.29-.04-4.73 1.52-6.5 1.34-1.53 3.01-2.72 4.89-3.47 1.77-.72 3.79.1 4.56 1.85l2.74 6.24c.94 2.13.77 4.6-.46 6.58l-1.45 2.32c3.29 5.85 8.01 10.78 13.71 14.32l2.38-1.34c2.04-1.14 4.5-1.21 6.59-.17z"/></svg>