<svg width="117" height="117" viewBox="0 0 117 117" fill="none" xmlns="http://www.w3.org/2000/svg">
<g clip-path="url(#clip0_140_63)">
<path d="M36.4884 81.9878L32.0444 81.3151L30.0417 77.1031C29.6286 76.2062 28.9671 75.4466 28.1356 74.9142C27.3041 74.3817 26.3374 74.0987 25.35 74.0987C24.3626 74.0987 23.3959 74.3817 22.5644 74.9142C21.7329 75.4466 21.0714 76.2062 20.6583 77.1031L18.6557 81.3151L14.2116 81.9878C13.2531 82.1354 12.3546 82.5468 11.6165 83.176C10.8785 83.8052 10.3302 84.6273 10.0328 85.5505C9.71219 86.4997 9.66186 87.5195 9.88741 88.4957C10.113 89.472 10.6055 90.3663 11.31 91.0787L14.5626 94.3801L13.7826 99.0601C13.6089 100.057 13.7209 101.082 14.1057 102.018C14.4905 102.953 15.1323 103.761 15.9569 104.347C16.7389 104.907 17.6635 105.234 18.6238 105.291C19.5841 105.348 20.541 105.132 21.3837 104.668L25.35 102.502L29.3085 104.664C30.1508 105.129 31.1074 105.345 32.0675 105.288C33.0276 105.231 33.9519 104.903 34.7334 104.343C35.5579 103.757 36.1998 102.951 36.5849 102.016C36.97 101.081 37.0826 100.056 36.9096 99.0601L36.1296 94.3801L39.39 91.0768C40.0929 90.3641 40.5838 89.4701 40.8079 88.4946C41.0321 87.519 40.9807 86.5004 40.6595 85.5524C40.3626 84.6302 39.8154 83.8086 39.0789 83.1792C38.3424 82.5498 37.4456 82.1373 36.4884 81.9878ZM36.623 88.337L32.6625 92.3423C32.4458 92.5616 32.2843 92.8292 32.1911 93.1231C32.0978 93.417 32.0756 93.7288 32.1263 94.033L33.0623 99.688C33.1151 99.9633 33.0881 100.248 32.9844 100.509C32.8808 100.769 32.7048 100.994 32.4773 101.158C32.2926 101.299 32.0704 101.381 31.8388 101.395C31.6072 101.409 31.3767 101.354 31.1766 101.236L26.2841 98.5648C25.9976 98.4084 25.6764 98.3265 25.35 98.3265C25.0236 98.3265 24.7025 98.4084 24.416 98.5648L19.5215 101.236C19.3216 101.353 19.0915 101.408 18.8603 101.394C18.6291 101.381 18.4072 101.298 18.2228 101.158C17.9952 100.994 17.8193 100.769 17.7156 100.509C17.612 100.248 17.585 99.9633 17.6378 99.688L18.5738 94.033C18.6244 93.7288 18.6022 93.417 18.509 93.1231C18.4158 92.8292 18.2542 92.5616 18.0375 92.3423L14.079 88.3351C13.8827 88.1325 13.7463 87.8795 13.6851 87.6041C13.6238 87.3287 13.64 87.0418 13.7319 86.775C13.8035 86.5352 13.9408 86.3202 14.1283 86.1545C14.3158 85.9887 14.5459 85.8787 14.7927 85.8371L20.2644 85.0123C20.5802 84.9645 20.8794 84.84 21.1357 84.6496C21.3921 84.4592 21.5978 84.2087 21.7347 83.9202L24.18 78.7801C24.277 78.5498 24.4397 78.3533 24.6478 78.2151C24.8559 78.0769 25.1002 78.0031 25.35 78.0031C25.5998 78.0031 25.8441 78.0769 26.0522 78.2151C26.2604 78.3533 26.4231 78.5498 26.52 78.7801L28.9653 83.9281C29.1022 84.2165 29.3079 84.467 29.5643 84.6574C29.8207 84.8478 30.1199 84.9723 30.4356 85.0201L35.9073 85.8429C36.1542 85.8852 36.3843 85.9956 36.5717 86.1617C36.7592 86.3277 36.8965 86.5429 36.9681 86.7829C37.0589 87.0483 37.0748 87.3336 37.0139 87.6075C36.953 87.8814 36.8177 88.1351 36.623 88.337ZM48.75 62.4001H52.65C54.2015 62.4001 55.6895 61.7837 56.7866 60.6866C57.8837 59.5895 58.5 58.1016 58.5 56.55V37.05H60.645C61.3457 37.0497 62.0316 36.8486 62.6216 36.4706C63.2115 36.0925 63.6807 35.5533 63.9737 34.9167C64.292 34.2555 64.4136 33.5167 64.3241 32.7883C64.2346 32.0599 63.9376 31.3726 63.4686 30.8081L53.5236 18.8741C53.1786 18.4601 52.7469 18.1269 52.259 17.8981C51.7711 17.6694 51.2389 17.5505 50.7 17.55C50.1606 17.5511 49.6281 17.6708 49.1401 17.9006C48.6522 18.1304 48.2207 18.4648 47.8764 18.8799L37.9197 30.8237C37.4542 31.3875 37.1603 32.073 37.0729 32.7989C36.9854 33.5248 37.1081 34.2605 37.4264 34.9187C37.7196 35.5548 38.1889 36.0937 38.7789 36.4714C39.3688 36.8491 40.0545 37.0499 40.755 37.05H42.9V56.55C42.9 58.1016 43.5164 59.5895 44.6134 60.6866C45.7105 61.7837 47.1985 62.4001 48.75 62.4001ZM41.0553 33.15L50.7 21.5865L60.3681 33.15H56.55C56.0328 33.15 55.5369 33.3555 55.1712 33.7212C54.8055 34.0869 54.6 34.5829 54.6 35.1V56.55C54.6 57.0672 54.3946 57.5632 54.0289 57.9289C53.6632 58.2946 53.1672 58.5 52.65 58.5H48.75C48.2328 58.5 47.7369 58.2946 47.3712 57.9289C47.0055 57.5632 46.8 57.0672 46.8 56.55V35.1C46.8 34.5829 46.5946 34.0869 46.2289 33.7212C45.8632 33.3555 45.3672 33.15 44.85 33.15H41.0553ZM99.45 62.4001H103.35C104.902 62.4001 106.39 61.7837 107.487 60.6866C108.584 59.5895 109.2 58.1016 109.2 56.55V37.05H111.345C112.046 37.0496 112.732 36.8482 113.322 36.4697C113.912 36.0913 114.381 35.5517 114.674 34.9148C114.992 34.2543 115.114 33.516 115.024 32.7882C114.935 32.0604 114.638 31.3737 114.169 30.81L104.224 18.8741C103.879 18.4601 103.447 18.1269 102.959 17.8981C102.471 17.6694 101.939 17.5505 101.4 17.55C100.861 17.5511 100.328 17.6708 99.8401 17.9006C99.3522 18.1304 98.9207 18.4648 98.5764 18.8799L88.6314 30.8237C88.1649 31.3869 87.87 32.0722 87.7818 32.7982C87.6937 33.5242 87.816 34.2602 88.1342 34.9187C88.4268 35.5536 88.895 36.0917 89.4834 36.4693C90.0718 36.8469 90.7559 37.0484 91.455 37.05H93.6V56.55C93.6 58.1016 94.2164 59.5895 95.3135 60.6866C96.4105 61.7837 97.8985 62.4001 99.45 62.4001ZM91.7573 33.15L101.4 21.5865L111.068 33.15H107.25C106.733 33.15 106.237 33.3555 105.871 33.7212C105.505 34.0869 105.3 34.5829 105.3 35.1V56.55C105.3 57.0672 105.095 57.5632 104.729 57.9289C104.363 58.2946 103.867 58.5 103.35 58.5H99.45C98.9329 58.5 98.4369 58.2946 98.0712 57.9289C97.7055 57.5632 97.5 57.0672 97.5 56.55V35.1C97.5 34.5829 97.2946 34.0869 96.9289 33.7212C96.5632 33.3555 96.0672 33.15 95.55 33.15H91.7573Z" fill="white"/>
<path d="M3.9 115.05H42.9C44.6242 115.044 46.2977 114.466 47.6588 113.408C49.02 112.349 49.9921 110.869 50.4231 109.2H54.6C56.3523 109.201 58.0531 109.793 59.4282 110.879L63.8762 114.432C65.9695 116.093 68.5629 116.998 71.2355 117H101.07C103.081 117.038 105.033 116.316 106.535 114.978C108.038 113.641 108.981 111.787 109.177 109.785C109.298 108.191 108.925 106.599 108.106 105.226C109.902 105.005 111.568 104.176 112.827 102.877C114.086 101.578 114.863 99.8867 115.029 98.085C115.106 97.0619 114.98 96.0335 114.658 95.0592C114.336 94.0849 113.825 93.184 113.153 92.4086C114.057 91.883 114.846 91.1809 115.474 90.3441C116.101 89.5073 116.554 88.5528 116.805 87.5375C117.068 86.411 117.071 85.2396 116.814 84.1118C116.556 82.9841 116.046 81.9296 115.321 81.0284C114.733 80.2839 114.018 79.6489 113.209 79.1525C114.501 77.6306 115.159 75.6717 115.05 73.6788C114.896 71.6461 113.971 69.7491 112.463 68.3771C110.956 67.005 108.98 66.2619 106.942 66.3L79.8739 66.3176C84.1601 59.1192 86.1973 50.8042 85.7239 42.4398C85.6108 40.757 84.953 39.1567 83.85 37.8807V19.5H85.995C86.6957 19.4997 87.3816 19.2986 87.9715 18.9205C88.5615 18.5425 89.0307 18.0032 89.3237 17.3667C89.6411 16.7056 89.7622 15.9673 89.6727 15.2394C89.5832 14.5115 89.2868 13.8245 88.8186 13.26L78.8697 1.32602C78.5153 0.927825 78.0807 0.609141 77.5944 0.390918C77.1081 0.172695 76.5811 0.0598755 76.048 0.0598755C75.515 0.0598755 74.988 0.172695 74.5017 0.390918C74.0154 0.609141 73.5808 0.927825 73.2264 1.32602L63.2814 13.2717C62.816 13.8355 62.522 14.5209 62.4343 15.2467C62.3465 15.9725 62.4686 16.7082 62.7861 17.3667C63.0784 18.0017 63.5461 18.5399 64.1341 18.9179C64.7221 19.2959 65.406 19.4979 66.105 19.5H68.25V51.1251C64.0984 63.1937 54.8886 67.7645 49.5866 68.1974C48.9031 67.0297 47.9268 66.0606 46.7541 65.3859C45.5814 64.7111 44.253 64.3541 42.9 64.35H3.9C2.86566 64.35 1.87368 64.7609 1.14228 65.4923C0.410892 66.2237 0 67.2157 0 68.25L0 111.15C0 112.184 0.410892 113.176 1.14228 113.908C1.87368 114.639 2.86566 115.05 3.9 115.05ZM66.4072 15.6L76.05 4.03262L85.7162 15.6H81.9C81.3828 15.6 80.8868 15.8055 80.5211 16.1712C80.1554 16.5369 79.95 17.0328 79.95 17.55V35.4023C79.5895 35.2975 79.222 35.2186 78.8502 35.1663C77.6108 35.0222 76.3549 35.1785 75.1887 35.6221C74.0225 36.0657 72.9802 36.7836 72.15 37.715V17.55C72.15 17.0328 71.9446 16.5369 71.5789 16.1712C71.2132 15.8055 70.7172 15.6 70.2 15.6H66.4072ZM74.0512 42.4671C74.147 41.4836 74.6125 40.5731 75.3537 39.9196C76.0949 39.2661 77.0566 38.9183 78.0443 38.9466C79.0321 38.9748 79.9723 39.3769 80.675 40.0717C81.3776 40.7664 81.7904 41.702 81.8298 42.6894C82.2661 50.227 80.4402 57.723 76.5863 64.2155C76.2091 64.8034 75.9975 65.4821 75.9735 66.1802C75.9495 66.8783 76.1141 67.5699 76.4499 68.1824C76.7858 68.7948 77.2805 69.3054 77.882 69.6605C78.4835 70.0155 79.1696 70.2019 79.8681 70.2H106.942C107.976 70.1756 108.982 70.5398 109.761 71.2206C110.54 71.9014 111.036 72.8495 111.15 73.8777C111.179 74.4132 111.098 74.949 110.913 75.452C110.727 75.9551 110.44 76.4148 110.07 76.8027C109.706 77.1839 109.268 77.4868 108.784 77.6927C108.299 77.8986 107.777 78.0032 107.25 78C106.733 78 106.237 78.2055 105.871 78.5712C105.505 78.9369 105.3 79.4328 105.3 79.95C105.3 80.4672 105.505 80.9632 105.871 81.3289C106.237 81.6946 106.733 81.9 107.25 81.9H109.2C109.792 81.9136 110.373 82.0595 110.9 82.3271C111.428 82.5947 111.889 82.9771 112.25 83.4464C112.611 83.8868 112.865 84.4041 112.995 84.9586C113.124 85.513 113.125 86.0897 112.997 86.6444C112.736 87.5484 112.181 88.3397 111.42 88.8931C110.659 89.4465 109.735 89.7304 108.794 89.7H107.25C106.733 89.7 106.237 89.9055 105.871 90.2712C105.505 90.6369 105.3 91.1328 105.3 91.65C105.3 92.1672 105.505 92.6632 105.871 93.0289C106.237 93.3946 106.733 93.6 107.25 93.6C107.788 93.5985 108.32 93.7082 108.814 93.9224C109.307 94.1365 109.751 94.4504 110.117 94.8444C110.484 95.2383 110.764 95.7037 110.942 96.2114C111.12 96.7191 111.191 97.2581 111.15 97.7945C111.018 98.8127 110.512 99.7456 109.731 100.412C108.95 101.078 107.949 101.43 106.922 101.4H101.4C100.883 101.4 100.387 101.605 100.021 101.971C99.6554 102.337 99.45 102.833 99.45 103.35C99.45 103.867 99.6554 104.363 100.021 104.729C100.387 105.095 100.883 105.3 101.4 105.3C101.937 105.3 102.468 105.411 102.959 105.626C103.451 105.841 103.893 106.156 104.258 106.549C104.623 106.943 104.903 107.408 105.08 107.915C105.256 108.421 105.327 108.959 105.286 109.494C105.155 110.511 104.652 111.442 103.873 112.108C103.095 112.774 102.097 113.128 101.072 113.1H71.2374C69.4447 113.102 67.7043 112.496 66.3 111.382L61.8599 107.835C59.7946 106.196 57.2364 105.303 54.6 105.3H50.7V72.15C50.7 72.1052 50.6883 72.0623 50.6864 72.0174C59.9118 70.8572 72.2377 61.5596 74.0512 42.471V42.4671ZM3.9 68.25H42.9C43.9343 68.25 44.9263 68.6609 45.6577 69.3923C46.3891 70.1237 46.8 71.1157 46.8 72.15V107.25C46.8 108.284 46.3891 109.276 45.6577 110.008C44.9263 110.739 43.9343 111.15 42.9 111.15H3.9V68.25Z" fill="white"/>
</g>
<defs>
<clipPath id="clip0_140_63">
<rect width="117" height="117" fill="white"/>
</clipPath>
</defs>
</svg>
